<svg width="238" height="47" viewBox="0 0 238 47" fill="none" xmlns="http://www.w3.org/2000/svg">
<path d="M0.396903 2.47178V1.04307H3.633V13.4883H2.04938V2.47178H0.396903ZM6.32365 7.13658C6.32365 5.16279 6.64497 3.62507 7.2876 2.52342C7.93023 1.41029 9.05483 0.853728 10.6614 0.853728C12.2565 0.853728 13.3754 1.41029 14.018 2.52342C14.6606 3.62507 14.9819 5.16279 14.9819 7.13658C14.9819 9.14479 14.6606 10.7055 14.018 11.8186C13.3754 12.9317 12.2565 13.4883 10.6614 13.4883C9.05483 13.4883 7.93023 12.9317 7.2876 11.8186C6.64497 10.7055 6.32365 9.14479 6.32365 7.13658ZM13.4327 7.13658C13.4327 6.13821 13.3639 5.29476 13.2262 4.60622C13.0999 3.90622 12.8303 3.34392 12.4172 2.91932C12.0155 2.49473 11.4303 2.28243 10.6614 2.28243C9.88106 2.28243 9.28434 2.49473 8.87122 2.91932C8.46957 3.34392 8.1999 3.90622 8.06219 4.60622C7.93596 5.29476 7.87285 6.13821 7.87285 7.13658C7.87285 8.16938 7.93596 9.03578 8.06219 9.73578C8.1999 10.4358 8.46957 10.9981 8.87122 11.4227C9.28434 11.8473 9.88106 12.0596 10.6614 12.0596C11.4303 12.0596 12.0155 11.8473 12.4172 11.4227C12.8303 10.9981 13.0999 10.4358 13.2262 9.73578C13.3639 9.03578 13.4327 8.16938 13.4327 7.13658ZM17.1324 7.13658C17.1324 5.16279 17.4537 3.62507 18.0963 2.52342C18.739 1.41029 19.8636 0.853728 21.4701 0.853728C23.0652 0.853728 24.1841 1.41029 24.8267 2.52342C25.4694 3.62507 25.7907 5.16279 25.7907 7.13658C25.7907 9.14479 25.4694 10.7055 24.8267 11.8186C24.1841 12.9317 23.0652 13.4883 21.4701 13.4883C19.8636 13.4883 18.739 12.9317 18.0963 11.8186C17.4537 10.7055 17.1324 9.14479 17.1324 7.13658ZM24.2415 7.13658C24.2415 6.13821 24.1726 5.29476 24.0349 4.60622C23.9087 3.90622 23.639 3.34392 23.2259 2.91932C22.8242 2.49473 22.239 2.28243 21.4701 2.28243C20.6898 2.28243 20.0931 2.49473 19.68 2.91932C19.2783 3.34392 19.0086 3.90622 18.8709 4.60622C18.7447 5.29476 18.6816 6.13821 18.6816 7.13658C18.6816 8.16938 18.7447 9.03578 18.8709 9.73578C19.0086 10.4358 19.2783 10.9981 19.68 11.4227C20.0931 11.8473 20.6898 12.0596 21.4701 12.0596C22.239 12.0596 22.8242 11.8473 23.2259 11.4227C23.639 10.9981 23.9087 10.4358 24.0349 9.73578C24.1726 9.03578 24.2415 8.16938 24.2415 7.13658ZM27.5969 3.84884C27.5969 3.0685 27.8321 2.44883 28.3026 1.9898C28.7731 1.51931 29.3756 1.28406 30.11 1.28406C30.8444 1.28406 31.4469 1.51931 31.9174 1.9898C32.3879 2.44883 32.6231 3.0685 32.6231 3.84884C32.6231 4.64065 32.3879 5.27181 31.9174 5.7423C31.4469 6.20132 30.8444 6.43083 30.11 6.43083C29.3756 6.43083 28.7731 6.20132 28.3026 5.7423C27.8321 5.27181 27.5969 4.64065 27.5969 3.84884ZM37.6494 1.47341L30.678 13.4883H29.1288L36.1002 1.47341H37.6494ZM30.11 2.248C29.7198 2.248 29.41 2.38571 29.1805 2.66112C28.9624 2.92506 28.8534 3.32097 28.8534 3.84884C28.8534 4.37671 28.9624 4.77836 29.1805 5.05377C29.41 5.32918 29.7198 5.46689 30.11 5.46689C30.5002 5.46689 30.81 5.32918 31.0395 5.05377C31.269 4.76688 31.3838 4.36524 31.3838 3.84884C31.3838 3.32097 31.269 2.92506 31.0395 2.66112C30.81 2.38571 30.5002 2.248 30.11 2.248ZM34.1895 11.1128C34.1895 10.321 34.4248 9.69562 34.8953 9.2366C35.3658 8.7661 35.9683 8.53085 36.7027 8.53085C37.4371 8.53085 38.0338 8.7661 38.4929 9.2366C38.9634 9.69562 39.1986 10.321 39.1986 11.1128C39.1986 11.8932 38.9634 12.5186 38.4929 12.9891C38.0338 13.4596 37.4371 13.6948 36.7027 13.6948C35.9683 13.6948 35.3658 13.4653 34.8953 13.0063C34.4248 12.5358 34.1895 11.9047 34.1895 11.1128ZM36.6855 9.51201C36.2953 9.51201 35.9855 9.64972 35.756 9.92513C35.5264 10.1891 35.4117 10.585 35.4117 11.1128C35.4117 11.6292 35.5264 12.0252 35.756 12.3006C35.9855 12.5645 36.2953 12.6965 36.6855 12.6965C37.0756 12.6965 37.3855 12.5645 37.615 12.3006C37.8445 12.0252 37.9593 11.6292 37.9593 11.1128C37.9593 10.585 37.8445 10.1891 37.615 9.92513C37.3855 9.64972 37.0756 9.51201 36.6855 9.51201ZM58.4154 4.0554L55.4719 13.4883H53.8538L51.5817 6.0005L49.3095 13.4883H47.6915L44.7308 4.0554H46.3316L48.5005 11.9735L50.8415 4.0554H52.4424L54.7317 11.9907L56.8662 4.0554H58.4154ZM64.0839 13.6432C63.2003 13.6432 62.397 13.4424 61.6741 13.0407C60.9626 12.6391 60.4003 12.0711 59.9872 11.3366C59.5855 10.5907 59.3847 9.73005 59.3847 8.75463C59.3847 7.79068 59.5912 6.94149 60.0044 6.20706C60.429 5.46115 61.0027 4.89311 61.7257 4.50294C62.4487 4.1013 63.2577 3.90048 64.1528 3.90048C65.0479 3.90048 65.8569 4.1013 66.5798 4.50294C67.3028 4.89311 67.8708 5.45541 68.284 6.18985C68.7086 6.92428 68.9208 7.77921 68.9208 8.75463C68.9208 9.73005 68.7028 10.5907 68.2667 11.3366C67.8421 12.0711 67.2626 12.6391 66.5282 13.0407C65.7938 13.4424 64.979 13.6432 64.0839 13.6432ZM64.0839 12.2661C64.6462 12.2661 65.1741 12.1342 65.6675 11.8702C66.161 11.6063 66.5569 11.2104 66.8553 10.6825C67.1651 10.1546 67.32 9.51201 67.32 8.75463C67.32 7.99724 67.1708 7.35461 66.8725 6.82674C66.5741 6.29886 66.1839 5.9087 65.702 5.65624C65.22 5.3923 64.6979 5.26033 64.1356 5.26033C63.5618 5.26033 63.0339 5.3923 62.5519 5.65624C62.0814 5.9087 61.7027 6.29886 61.4159 6.82674C61.129 7.35461 60.9855 7.99724 60.9855 8.75463C60.9855 9.52349 61.1232 10.1719 61.3986 10.6997C61.6855 11.2276 62.0642 11.6235 62.5347 11.8874C63.0052 12.1399 63.5216 12.2661 64.0839 12.2661ZM75.0944 13.6432C74.2108 13.6432 73.4075 13.4424 72.6845 13.0407C71.973 12.6391 71.4107 12.0711 70.9976 11.3366C70.596 10.5907 70.3951 9.73005 70.3951 8.75463C70.3951 7.79068 70.6017 6.94149 71.0148 6.20706C71.4394 5.46115 72.0132 4.89311 72.7361 4.50294C73.4591 4.1013 74.2681 3.90048 75.1632 3.90048C76.0583 3.90048 76.8673 4.1013 77.5903 4.50294C78.3133 4.89311 78.8813 5.45541 79.2944 6.18985C79.719 6.92428 79.9313 7.77921 79.9313 8.75463C79.9313 9.73005 79.7133 10.5907 79.2772 11.3366C78.8526 12.0711 78.2731 12.6391 77.5387 13.0407C76.8042 13.4424 75.9895 13.6432 75.0944 13.6432ZM75.0944 12.2661C75.6567 12.2661 76.1845 12.1342 76.678 11.8702C77.1714 11.6063 77.5673 11.2104 77.8657 10.6825C78.1755 10.1546 78.3305 9.51201 78.3305 8.75463C78.3305 7.99724 78.1813 7.35461 77.8829 6.82674C77.5846 6.29886 77.1944 5.9087 76.7124 5.65624C76.2304 5.3923 75.7083 5.26033 75.146 5.26033C74.5722 5.26033 74.0444 5.3923 73.5624 5.65624C73.0919 5.9087 72.7132 6.29886 72.4263 6.82674C72.1394 7.35461 71.996 7.99724 71.996 8.75463C71.996 9.52349 72.1337 10.1719 72.4091 10.6997C72.696 11.2276 73.0747 11.6235 73.5452 11.8874C74.0157 12.1399 74.5321 12.2661 75.0944 12.2661ZM83.5573 0.750448V13.4883H81.9908V0.750448H83.5573ZM94.8336 8.41036C94.8336 8.70872 94.8164 9.0243 94.7819 9.35709H87.2425C87.2999 10.2866 87.6155 11.0153 88.1892 11.5432C88.7745 12.0596 89.4802 12.3178 90.3065 12.3178C90.9835 12.3178 91.5458 12.1629 91.9934 11.853C92.4524 11.5317 92.7737 11.1071 92.9573 10.5792H94.6442C94.3918 11.4858 93.8868 12.226 93.1295 12.7997C92.3721 13.3621 91.4311 13.6432 90.3065 13.6432C89.4114 13.6432 88.6081 13.4424 87.8966 13.0407C87.1966 12.6391 86.6458 12.0711 86.2441 11.3366C85.8425 10.5907 85.6417 9.73005 85.6417 8.75463C85.6417 7.77921 85.8368 6.92428 86.2269 6.18985C86.6171 5.45541 87.1622 4.89311 87.8622 4.50294C88.5737 4.1013 89.3884 3.90048 90.3065 3.90048C91.2016 3.90048 91.9934 4.09556 92.6819 4.48573C93.3704 4.8759 93.8983 5.41525 94.2655 6.10378C94.6442 6.78084 94.8336 7.5497 94.8336 8.41036ZM93.2155 8.08331C93.2155 7.48658 93.0836 6.97592 92.8196 6.55133C92.5557 6.11526 92.1942 5.7882 91.7352 5.57017C91.2876 5.34066 90.7884 5.2259 90.2376 5.2259C89.4458 5.2259 88.7688 5.47836 88.2065 5.98329C87.6556 6.48821 87.3401 7.18822 87.2597 8.08331H93.2155ZM101.497 3.88327C102.645 3.88327 103.574 4.23327 104.286 4.93328C104.997 5.62181 105.353 6.62018 105.353 7.92839V13.4883H103.804V8.15216C103.804 7.21117 103.568 6.49395 103.098 6.0005C102.627 5.49558 101.985 5.24312 101.17 5.24312C100.344 5.24312 99.684 5.50132 99.1906 6.01771C98.7086 6.53411 98.4676 7.28576 98.4676 8.27266V13.4883H96.9012V4.0554H98.4676V5.39804C98.7774 4.91606 99.1963 4.54311 99.7242 4.27917C100.264 4.01523 100.855 3.88327 101.497 3.88327ZM118.818 13.4883L115.961 8.58249H114.067V13.4883H112.501V1.49062H116.374C117.28 1.49062 118.043 1.64554 118.663 1.95538C119.294 2.26522 119.765 2.68407 120.075 3.21195C120.384 3.73982 120.539 4.34229 120.539 5.01934C120.539 5.84558 120.298 6.57428 119.816 7.20543C119.346 7.83659 118.634 8.25544 117.682 8.462L120.694 13.4883H118.818ZM114.067 7.32592H116.374C117.223 7.32592 117.86 7.11936 118.284 6.70625C118.709 6.28165 118.921 5.71935 118.921 5.01934C118.921 4.30786 118.709 3.75704 118.284 3.36687C117.871 2.9767 117.234 2.78162 116.374 2.78162H114.067V7.32592ZM122.388 8.73741C122.388 7.77347 122.583 6.93002 122.973 6.20706C123.363 5.47263 123.897 4.90459 124.574 4.50294C125.263 4.1013 126.026 3.90048 126.863 3.90048C127.69 3.90048 128.407 4.07835 129.015 4.43409C129.623 4.78983 130.077 5.23738 130.375 5.77673V4.0554H131.959V13.4883H130.375V11.7325C130.065 12.2834 129.6 12.7424 128.981 13.1096C128.372 13.4653 127.661 13.6432 126.846 13.6432C126.009 13.6432 125.251 13.4366 124.574 13.0235C123.897 12.6104 123.363 12.0309 122.973 11.285C122.583 10.5391 122.388 9.68988 122.388 8.73741ZM130.375 8.75463C130.375 8.04314 130.232 7.42347 129.945 6.89559C129.658 6.36772 129.268 5.96607 128.774 5.69066C128.292 5.40377 127.759 5.26033 127.173 5.26033C126.588 5.26033 126.054 5.39804 125.572 5.67345C125.09 5.94886 124.706 6.3505 124.419 6.87838C124.132 7.40625 123.989 8.02593 123.989 8.73741C123.989 9.46037 124.132 10.0915 124.419 10.6309C124.706 11.1587 125.09 11.5661 125.572 11.853C126.054 12.1284 126.588 12.2661 127.173 12.2661C127.759 12.2661 128.292 12.1284 128.774 11.853C129.268 11.5661 129.658 11.1587 129.945 10.6309C130.232 10.0915 130.375 9.46611 130.375 8.75463ZM136.172 5.79394C136.482 5.25459 136.941 4.80705 137.549 4.4513C138.169 4.08409 138.886 3.90048 139.701 3.90048C140.539 3.90048 141.296 4.1013 141.973 4.50294C142.661 4.90459 143.201 5.47263 143.591 6.20706C143.981 6.93002 144.176 7.77347 144.176 8.73741C144.176 9.68988 143.981 10.5391 143.591 11.285C143.201 12.0309 142.661 12.6104 141.973 13.0235C141.296 13.4366 140.539 13.6432 139.701 13.6432C138.898 13.6432 138.186 13.4653 137.566 13.1096C136.958 12.7424 136.493 12.2891 136.172 11.7497V17.9637H134.606V4.0554H136.172V5.79394ZM142.575 8.73741C142.575 8.02593 142.432 7.40625 142.145 6.87838C141.858 6.3505 141.468 5.94886 140.975 5.67345C140.493 5.39804 139.959 5.26033 139.374 5.26033C138.8 5.26033 138.266 5.40377 137.773 5.69066C137.291 5.96607 136.901 6.37346 136.602 6.9128C136.316 7.44068 136.172 8.05462 136.172 8.75463C136.172 9.46611 136.316 10.0915 136.602 10.6309C136.901 11.1587 137.291 11.5661 137.773 11.853C138.266 12.1284 138.8 12.2661 139.374 12.2661C139.959 12.2661 140.493 12.1284 140.975 11.853C141.468 11.5661 141.858 11.1587 142.145 10.6309C142.432 10.0915 142.575 9.46037 142.575 8.73741ZM148.149 5.3464V10.9063C148.149 11.3653 148.246 11.6924 148.441 11.8874C148.636 12.0711 148.975 12.1629 149.457 12.1629H150.61V13.4883H149.199C148.327 13.4883 147.673 13.2875 147.236 12.8858C146.8 12.4842 146.582 11.8243 146.582 10.9063V5.3464H145.36V4.0554H146.582V1.67997H148.149V4.0554H150.61V5.3464H148.149ZM160.874 4.0554V13.4883H159.307V12.094C159.009 12.576 158.59 12.9547 158.051 13.2301C157.523 13.494 156.938 13.626 156.295 13.626C155.561 13.626 154.901 13.4768 154.316 13.1784C153.73 12.8686 153.266 12.4096 152.921 11.8014C152.588 11.1932 152.422 10.453 152.422 9.58086V4.0554H153.971V9.37431C153.971 10.3038 154.207 11.021 154.677 11.526C155.148 12.0194 155.79 12.2661 156.605 12.2661C157.443 12.2661 158.102 12.0079 158.584 11.4915C159.066 10.9751 159.307 10.2235 159.307 9.2366V4.0554H160.874ZM165.085 5.58738C165.36 5.04803 165.751 4.62918 166.256 4.33081C166.772 4.03245 167.397 3.88327 168.132 3.88327V5.50132H167.719C165.963 5.50132 165.085 6.45378 165.085 8.35872V13.4883H163.519V4.0554H165.085V5.58738ZM178.547 8.41036C178.547 8.70872 178.529 9.0243 178.495 9.35709H170.956C171.013 10.2866 171.329 11.0153 171.902 11.5432C172.488 12.0596 173.193 12.3178 174.02 12.3178C174.697 12.3178 175.259 12.1629 175.706 11.853C176.165 11.5317 176.487 11.1071 176.67 10.5792H178.357C178.105 11.4858 177.6 12.226 176.843 12.7997C176.085 13.3621 175.144 13.6432 174.02 13.6432C173.124 13.6432 172.321 13.4424 171.61 13.0407C170.91 12.6391 170.359 12.0711 169.957 11.3366C169.556 10.5907 169.355 9.73005 169.355 8.75463C169.355 7.77921 169.55 6.92428 169.94 6.18985C170.33 5.45541 170.875 4.89311 171.575 4.50294C172.287 4.1013 173.101 3.90048 174.02 3.90048C174.915 3.90048 175.706 4.09556 176.395 4.48573C177.084 4.8759 177.611 5.41525 177.979 6.10378C178.357 6.78084 178.547 7.5497 178.547 8.41036ZM176.929 8.08331C176.929 7.48658 176.797 6.97592 176.533 6.55133C176.269 6.11526 175.907 5.7882 175.448 5.57017C175.001 5.34066 174.502 5.2259 173.951 5.2259C173.159 5.2259 172.482 5.47836 171.92 5.98329C171.369 6.48821 171.053 7.18822 170.973 8.08331H176.929ZM189.317 13.6432C188.434 13.6432 187.63 13.4424 186.907 13.0407C186.196 12.6391 185.634 12.0711 185.221 11.3366C184.819 10.5907 184.618 9.73005 184.618 8.75463C184.618 7.79068 184.825 6.94149 185.238 6.20706C185.662 5.46115 186.236 4.89311 186.959 4.50294C187.682 4.1013 188.491 3.90048 189.386 3.90048C190.281 3.90048 191.09 4.1013 191.813 4.50294C192.536 4.89311 193.104 5.45541 193.517 6.18985C193.942 6.92428 194.154 7.77921 194.154 8.75463C194.154 9.73005 193.936 10.5907 193.5 11.3366C193.076 12.0711 192.496 12.6391 191.762 13.0407C191.027 13.4424 190.212 13.6432 189.317 13.6432ZM189.317 12.2661C189.88 12.2661 190.407 12.1342 190.901 11.8702C191.394 11.6063 191.79 11.2104 192.089 10.6825C192.398 10.1546 192.553 9.51201 192.553 8.75463C192.553 7.99724 192.404 7.35461 192.106 6.82674C191.807 6.29886 191.417 5.9087 190.935 5.65624C190.453 5.3923 189.931 5.26033 189.369 5.26033C188.795 5.26033 188.267 5.3923 187.785 5.65624C187.315 5.9087 186.936 6.29886 186.649 6.82674C186.362 7.35461 186.219 7.99724 186.219 8.75463C186.219 9.52349 186.357 10.1719 186.632 10.6997C186.919 11.2276 187.298 11.6235 187.768 11.8874C188.239 12.1399 188.755 12.2661 189.317 12.2661ZM200.81 3.88327C201.957 3.88327 202.887 4.23327 203.598 4.93328C204.31 5.62181 204.665 6.62018 204.665 7.92839V13.4883H203.116V8.15216C203.116 7.21117 202.881 6.49395 202.411 6.0005C201.94 5.49558 201.297 5.24312 200.483 5.24312C199.656 5.24312 198.997 5.50132 198.503 6.01771C198.021 6.53411 197.78 7.28576 197.78 8.27266V13.4883H196.214V4.0554H197.78V5.39804C198.09 4.91606 198.509 4.54311 199.037 4.27917C199.576 4.01523 200.167 3.88327 200.81 3.88327ZM223.157 3.88327C223.891 3.88327 224.545 4.03819 225.119 4.34803C225.693 4.64639 226.146 5.09967 226.479 5.70787C226.812 6.31608 226.978 7.05625 226.978 7.92839V13.4883H225.429V8.15216C225.429 7.21117 225.194 6.49395 224.723 6.0005C224.264 5.49558 223.639 5.24312 222.847 5.24312C222.032 5.24312 221.384 5.50705 220.902 6.03493C220.42 6.55133 220.179 7.30297 220.179 8.28987V13.4883H218.63V8.15216C218.63 7.21117 218.395 6.49395 217.924 6.0005C217.465 5.49558 216.84 5.24312 216.048 5.24312C215.233 5.24312 214.585 5.50705 214.103 6.03493C213.621 6.55133 213.38 7.30297 213.38 8.28987V13.4883H211.813V4.0554H213.38V5.41525C213.69 4.9218 214.103 4.54311 214.619 4.27917C215.147 4.01523 215.726 3.88327 216.358 3.88327C217.149 3.88327 217.849 4.06114 218.458 4.41688C219.066 4.77262 219.519 5.29476 219.818 5.98329C220.081 5.31771 220.518 4.80131 221.126 4.43409C221.734 4.06687 222.411 3.88327 223.157 3.88327ZM237.672 4.0554L231.992 17.9293H230.374L232.233 13.385L228.429 4.0554H230.167L233.128 11.6981L236.054 4.0554H237.672ZM30.7009 32.8833C31.4353 32.8833 32.0894 33.0382 32.6632 33.348C33.237 33.6464 33.6903 34.0997 34.0231 34.7079C34.3558 35.3161 34.5222 36.0562 34.5222 36.9284V42.4883H32.973V37.1522C32.973 36.2112 32.7378 35.4939 32.2673 35.0005C31.8083 34.4956 31.1829 34.2431 30.3911 34.2431C29.5763 34.2431 28.9279 34.5071 28.446 35.0349C27.964 35.5513 27.723 36.303 27.723 37.2899V42.4883H26.1738V37.1522C26.1738 36.2112 25.9386 35.4939 25.4681 35.0005C25.009 34.4956 24.3836 34.2431 23.5918 34.2431C22.777 34.2431 22.1287 34.5071 21.6467 35.0349C21.1647 35.5513 20.9237 36.303 20.9237 37.2899V42.4883H19.3573V33.0554H20.9237V34.4152C21.2336 33.9218 21.6467 33.5431 22.1631 33.2792C22.691 33.0152 23.2705 32.8833 23.9016 32.8833C24.6935 32.8833 25.3935 33.0611 26.0017 33.4169C26.6099 33.7726 27.0632 34.2948 27.3615 34.9833C27.6255 34.3177 28.0615 33.8013 28.6697 33.4341C29.2779 33.0669 29.955 32.8833 30.7009 32.8833ZM37.9008 31.5234C37.6024 31.5234 37.3499 31.4201 37.1434 31.2136C36.9368 31.007 36.8335 30.7546 36.8335 30.4562C36.8335 30.1578 36.9368 29.9054 37.1434 29.6988C37.3499 29.4922 37.6024 29.389 37.9008 29.389C38.1876 29.389 38.4286 29.4922 38.6237 29.6988C38.8303 29.9054 38.9335 30.1578 38.9335 30.4562C38.9335 30.7546 38.8303 31.007 38.6237 31.2136C38.4286 31.4201 38.1876 31.5234 37.9008 31.5234ZM38.6581 33.0554V42.4883H37.0917V33.0554H38.6581ZM45.9238 32.8833C47.0713 32.8833 48.0008 33.2333 48.7123 33.9333C49.4238 34.6218 49.7795 35.6202 49.7795 36.9284V42.4883H48.2303V37.1522C48.2303 36.2112 47.9951 35.4939 47.5246 35.0005C47.0541 34.4956 46.4115 34.2431 45.5967 34.2431C44.7705 34.2431 44.1106 34.5013 43.6172 35.0177C43.1352 35.5341 42.8942 36.2858 42.8942 37.2727V42.4883H41.3278V33.0554H42.8942V34.398C43.2041 33.9161 43.6229 33.5431 44.1508 33.2792C44.6901 33.0152 45.2811 32.8833 45.9238 32.8833ZM51.753 37.7374C51.753 36.7735 51.9481 35.93 52.3383 35.2071C52.7284 34.4726 53.262 33.9046 53.9391 33.5029C54.6276 33.1013 55.3965 32.9005 56.2457 32.9005C56.9801 32.9005 57.6629 33.0726 58.2941 33.4169C58.9252 33.7497 59.4072 34.1915 59.74 34.7423V29.7504H61.3236V42.4883H59.74V40.7153C59.4301 41.2776 58.9711 41.7424 58.3629 42.1096C57.7547 42.4653 57.0432 42.6432 56.2285 42.6432C55.3908 42.6432 54.6276 42.4366 53.9391 42.0235C53.262 41.6104 52.7284 41.0309 52.3383 40.285C51.9481 39.5391 51.753 38.6899 51.753 37.7374ZM59.74 37.7546C59.74 37.0431 59.5965 36.4235 59.3096 35.8956C59.0228 35.3677 58.6326 34.9661 58.1391 34.6907C57.6572 34.4038 57.1236 34.2603 56.5383 34.2603C55.9531 34.2603 55.4194 34.398 54.9375 34.6734C54.4555 34.9489 54.0711 35.3505 53.7842 35.8784C53.4973 36.4063 53.3538 37.0259 53.3538 37.7374C53.3538 38.4604 53.4973 39.0915 53.7842 39.6309C54.0711 40.1587 54.4555 40.5661 54.9375 40.853C55.4194 41.1284 55.9531 41.2661 56.5383 41.2661C57.1236 41.2661 57.6572 41.1284 58.1391 40.853C58.6326 40.5661 59.0228 40.1587 59.3096 39.6309C59.5965 39.0915 59.74 38.4661 59.74 37.7546ZM73.2418 32.8833C73.9533 32.8833 74.5959 33.0382 75.1697 33.348C75.7434 33.6464 76.191 34.0997 76.5123 34.7079C76.8451 35.3161 77.0115 36.0562 77.0115 36.9284V42.4883H75.4623V37.1522C75.4623 36.2112 75.227 35.4939 74.7566 35.0005C74.2861 34.4956 73.6434 34.2431 72.8287 34.2431C72.0024 34.2431 71.3426 34.5013 70.8491 35.0177C70.3672 35.5341 70.1262 36.2858 70.1262 37.2727V42.4883H68.5598V29.7504H70.1262V34.398C70.436 33.9161 70.8606 33.5431 71.4 33.2792C71.9508 33.0152 72.5647 32.8833 73.2418 32.8833ZM83.6842 42.6432C82.8006 42.6432 81.9973 42.4424 81.2743 42.0407C80.5629 41.6391 80.0006 41.0711 79.5874 40.3366C79.1858 39.5907 78.985 38.73 78.985 37.7546C78.985 36.7907 79.1915 35.9415 79.6046 35.2071C80.0292 34.4612 80.603 33.8931 81.326 33.5029C82.0489 33.1013 82.858 32.9005 83.753 32.9005C84.6481 32.9005 85.4572 33.1013 86.1801 33.5029C86.9031 33.8931 87.4711 34.4554 87.8842 35.1898C88.3088 35.9243 88.5211 36.7792 88.5211 37.7546C88.5211 38.73 88.3031 39.5907 87.867 40.3366C87.4424 41.0711 86.8629 41.6391 86.1285 42.0407C85.394 42.4424 84.5793 42.6432 83.6842 42.6432ZM83.6842 41.2661C84.2465 41.2661 84.7744 41.1342 85.2678 40.8702C85.7613 40.6063 86.1572 40.2104 86.4555 39.6825C86.7654 39.1546 86.9203 38.512 86.9203 37.7546C86.9203 36.9972 86.7711 36.3546 86.4727 35.8267C86.1744 35.2989 85.7842 34.9087 85.3022 34.6562C84.8203 34.3923 84.2981 34.2603 83.7358 34.2603C83.1621 34.2603 82.6342 34.3923 82.1522 34.6562C81.6817 34.9087 81.303 35.2989 81.0161 35.8267C80.7292 36.3546 80.5858 36.9972 80.5858 37.7546C80.5858 38.5235 80.7235 39.1719 80.9989 39.6997C81.2858 40.2276 81.6645 40.6235 82.135 40.8874C82.6055 41.1399 83.1219 41.2661 83.6842 41.2661ZM94.6946 42.6432C93.811 42.6432 93.0077 42.4424 92.2848 42.0407C91.5733 41.6391 91.011 41.0711 90.5979 40.3366C90.1962 39.5907 89.9954 38.73 89.9954 37.7546C89.9954 36.7907 90.202 35.9415 90.6151 35.2071C91.0397 34.4612 91.6135 33.8931 92.3364 33.5029C93.0594 33.1013 93.8684 32.9005 94.7635 32.9005C95.6586 32.9005 96.4676 33.1013 97.1906 33.5029C97.9135 33.8931 98.4816 34.4554 98.8947 35.1898C99.3193 35.9243 99.5316 36.7792 99.5316 37.7546C99.5316 38.73 99.3135 39.5907 98.8775 40.3366C98.4529 41.0711 97.8734 41.6391 97.1389 42.0407C96.4045 42.4424 95.5897 42.6432 94.6946 42.6432ZM94.6946 41.2661C95.2569 41.2661 95.7848 41.1342 96.2783 40.8702C96.7717 40.6063 97.1676 40.2104 97.466 39.6825C97.7758 39.1546 97.9307 38.512 97.9307 37.7546C97.9307 36.9972 97.7816 36.3546 97.4832 35.8267C97.1848 35.2989 96.7947 34.9087 96.3127 34.6562C95.8307 34.3923 95.3086 34.2603 94.7463 34.2603C94.1725 34.2603 93.6446 34.3923 93.1627 34.6562C92.6922 34.9087 92.3135 35.2989 92.0266 35.8267C91.7397 36.3546 91.5963 36.9972 91.5963 37.7546C91.5963 38.5235 91.734 39.1719 92.0094 39.6997C92.2963 40.2276 92.675 40.6235 93.1455 40.8874C93.6159 41.1399 94.1323 41.2661 94.6946 41.2661ZM101.006 37.7374C101.006 36.7735 101.201 35.93 101.591 35.2071C101.981 34.4726 102.515 33.9046 103.192 33.5029C103.88 33.1013 104.649 32.9005 105.499 32.9005C106.233 32.9005 106.916 33.0726 107.547 33.4169C108.178 33.7497 108.66 34.1915 108.993 34.7423V29.7504H110.576V42.4883H108.993V40.7153C108.683 41.2776 108.224 41.7424 107.616 42.1096C107.008 42.4653 106.296 42.6432 105.481 42.6432C104.644 42.6432 103.88 42.4366 103.192 42.0235C102.515 41.6104 101.981 41.0309 101.591 40.285C101.201 39.5391 101.006 38.6899 101.006 37.7374ZM108.993 37.7546C108.993 37.0431 108.849 36.4235 108.563 35.8956C108.276 35.3677 107.885 34.9661 107.392 34.6907C106.91 34.4038 106.376 34.2603 105.791 34.2603C105.206 34.2603 104.672 34.398 104.19 34.6734C103.708 34.9489 103.324 35.3505 103.037 35.8784C102.75 36.4063 102.607 37.0259 102.607 37.7374C102.607 38.4604 102.75 39.0915 103.037 39.6309C103.324 40.1587 103.708 40.5661 104.19 40.853C104.672 41.1284 105.206 41.2661 105.791 41.2661C106.376 41.2661 106.91 41.1284 107.392 40.853C107.885 40.5661 108.276 40.1587 108.563 39.6309C108.849 39.0915 108.993 38.4661 108.993 37.7546ZM114.033 31.5234C113.734 31.5234 113.482 31.4201 113.275 31.2136C113.069 31.007 112.965 30.7546 112.965 30.4562C112.965 30.1578 113.069 29.9054 113.275 29.6988C113.482 29.4922 113.734 29.389 114.033 29.389C114.319 29.389 114.56 29.4922 114.756 29.6988C114.962 29.9054 115.065 30.1578 115.065 30.4562C115.065 30.7546 114.962 31.007 114.756 31.2136C114.56 31.4201 114.319 31.5234 114.033 31.5234ZM114.79 33.0554V42.4883H113.224V33.0554H114.79ZM126.066 37.4104C126.066 37.7087 126.049 38.0243 126.015 38.3571H118.475C118.533 39.2866 118.848 40.0153 119.422 40.5432C120.007 41.0596 120.713 41.3178 121.539 41.3178C122.216 41.3178 122.779 41.1629 123.226 40.853C123.685 40.5317 124.006 40.1071 124.19 39.5792H125.877C125.624 40.4858 125.12 41.226 124.362 41.7997C123.605 42.3621 122.664 42.6432 121.539 42.6432C120.644 42.6432 119.841 42.4424 119.129 42.0407C118.429 41.6391 117.878 41.0711 117.477 40.3366C117.075 39.5907 116.874 38.73 116.874 37.7546C116.874 36.7792 117.069 35.9243 117.46 35.1898C117.85 34.4554 118.395 33.8931 119.095 33.5029C119.806 33.1013 120.621 32.9005 121.539 32.9005C122.434 32.9005 123.226 33.0956 123.915 33.4857C124.603 33.8759 125.131 34.4152 125.498 35.1038C125.877 35.7808 126.066 36.5497 126.066 37.4104ZM124.448 37.0833C124.448 36.4866 124.316 35.9759 124.052 35.5513C123.788 35.1153 123.427 34.7882 122.968 34.5702C122.52 34.3407 122.021 34.2259 121.47 34.2259C120.679 34.2259 120.001 34.4784 119.439 34.9833C118.888 35.4882 118.573 36.1882 118.492 37.0833H124.448ZM145.289 33.0554L142.345 42.4883H140.727L138.455 35.0005L136.183 42.4883H134.565L131.604 33.0554H133.205L135.374 40.9735L137.715 33.0554H139.316L141.605 40.9907L143.739 33.0554H145.289ZM147.652 31.5234C147.354 31.5234 147.101 31.4201 146.895 31.2136C146.688 31.007 146.585 30.7546 146.585 30.4562C146.585 30.1578 146.688 29.9054 146.895 29.6988C147.101 29.4922 147.354 29.389 147.652 29.389C147.939 29.389 148.18 29.4922 148.375 29.6988C148.582 29.9054 148.685 30.1578 148.685 30.4562C148.685 30.7546 148.582 31.007 148.375 31.2136C148.18 31.4201 147.939 31.5234 147.652 31.5234ZM148.41 33.0554V42.4883H146.843V33.0554H148.41ZM152.99 34.3464V39.9063C152.99 40.3653 153.088 40.6924 153.283 40.8874C153.478 41.0711 153.816 41.1629 154.298 41.1629H155.452V42.4883H154.04C153.168 42.4883 152.514 42.2875 152.078 41.8858C151.642 41.4842 151.424 40.8243 151.424 39.9063V34.3464H150.201V33.0554H151.424V30.68H152.99V33.0554H155.452V34.3464H152.99ZM162.031 32.8833C162.743 32.8833 163.386 33.0382 163.959 33.348C164.533 33.6464 164.981 34.0997 165.302 34.7079C165.635 35.3161 165.801 36.0562 165.801 36.9284V42.4883H164.252V37.1522C164.252 36.2112 164.017 35.4939 163.546 35.0005C163.076 34.4956 162.433 34.2431 161.618 34.2431C160.792 34.2431 160.132 34.5013 159.639 35.0177C159.157 35.5341 158.916 36.2858 158.916 37.2727V42.4883H157.349V29.7504H158.916V34.398C159.226 33.9161 159.65 33.5431 160.19 33.2792C160.74 33.0152 161.354 32.8833 162.031 32.8833ZM172.364 37.7546C172.364 36.7792 172.559 35.93 172.949 35.2071C173.339 34.4726 173.878 33.9046 174.567 33.5029C175.267 33.1013 176.065 32.9005 176.96 32.9005C178.119 32.9005 179.071 33.1816 179.817 33.7439C180.574 34.3062 181.074 35.0866 181.315 36.0849H179.628C179.467 35.5112 179.151 35.0579 178.681 34.7251C178.222 34.3923 177.648 34.2259 176.96 34.2259C176.065 34.2259 175.342 34.5357 174.791 35.1554C174.24 35.7636 173.965 36.63 173.965 37.7546C173.965 38.8907 174.24 39.7686 174.791 40.3883C175.342 41.0079 176.065 41.3178 176.96 41.3178C177.648 41.3178 178.222 41.1571 178.681 40.8358C179.14 40.5145 179.456 40.0555 179.628 39.4587H181.315C181.062 40.4227 180.557 41.1973 179.8 41.7825C179.042 42.3563 178.096 42.6432 176.96 42.6432C176.065 42.6432 175.267 42.4424 174.567 42.0407C173.878 41.6391 173.339 41.0711 172.949 40.3366C172.559 39.6022 172.364 38.7415 172.364 37.7546ZM182.819 37.7374C182.819 36.7735 183.015 35.93 183.405 35.2071C183.795 34.4726 184.328 33.9046 185.006 33.5029C185.694 33.1013 186.457 32.9005 187.295 32.9005C188.121 32.9005 188.838 33.0784 189.447 33.4341C190.055 33.7898 190.508 34.2374 190.806 34.7767V33.0554H192.39V42.4883H190.806V40.7325C190.497 41.2834 190.032 41.7424 189.412 42.1096C188.804 42.4653 188.092 42.6432 187.278 42.6432C186.44 42.6432 185.683 42.4366 185.006 42.0235C184.328 41.6104 183.795 41.0309 183.405 40.285C183.015 39.5391 182.819 38.6899 182.819 37.7374ZM190.806 37.7546C190.806 37.0431 190.663 36.4235 190.376 35.8956C190.089 35.3677 189.699 34.9661 189.206 34.6907C188.724 34.4038 188.19 34.2603 187.605 34.2603C187.019 34.2603 186.486 34.398 186.004 34.6734C185.522 34.9489 185.137 35.3505 184.851 35.8784C184.564 36.4063 184.42 37.0259 184.42 37.7374C184.42 38.4604 184.564 39.0915 184.851 39.6309C185.137 40.1587 185.522 40.5661 186.004 40.853C186.486 41.1284 187.019 41.2661 187.605 41.2661C188.19 41.2661 188.724 41.1284 189.206 40.853C189.699 40.5661 190.089 40.1587 190.376 39.6309C190.663 39.0915 190.806 38.4661 190.806 37.7546ZM196.604 34.7939C196.913 34.2546 197.372 33.807 197.981 33.4513C198.6 33.0841 199.317 32.9005 200.132 32.9005C200.97 32.9005 201.727 33.1013 202.404 33.5029C203.093 33.9046 203.632 34.4726 204.022 35.2071C204.413 35.93 204.608 36.7735 204.608 37.7374C204.608 38.6899 204.413 39.5391 204.022 40.285C203.632 41.0309 203.093 41.6104 202.404 42.0235C201.727 42.4366 200.97 42.6432 200.132 42.6432C199.329 42.6432 198.617 42.4653 197.998 42.1096C197.39 41.7424 196.925 41.2891 196.604 40.7497V46.9637H195.037V33.0554H196.604V34.7939ZM203.007 37.7374C203.007 37.0259 202.863 36.4063 202.577 35.8784C202.29 35.3505 201.899 34.9489 201.406 34.6734C200.924 34.398 200.39 34.2603 199.805 34.2603C199.231 34.2603 198.698 34.4038 198.204 34.6907C197.722 34.9661 197.332 35.3735 197.034 35.9128C196.747 36.4407 196.604 37.0546 196.604 37.7546C196.604 38.4661 196.747 39.0915 197.034 39.6309C197.332 40.1587 197.722 40.5661 198.204 40.853C198.698 41.1284 199.231 41.2661 199.805 41.2661C200.39 41.2661 200.924 41.1284 201.406 40.853C201.899 40.5661 202.29 40.1587 202.577 39.6309C202.863 39.0915 203.007 38.4604 203.007 37.7374ZM215.276 37.4104C215.276 37.7087 215.259 38.0243 215.225 38.3571H207.685C207.742 39.2866 208.058 40.0153 208.632 40.5432C209.217 41.0596 209.923 41.3178 210.749 41.3178C211.426 41.3178 211.988 41.1629 212.436 40.853C212.895 40.5317 213.216 40.1071 213.4 39.5792H215.087C214.834 40.4858 214.329 41.226 213.572 41.7997C212.815 42.3621 211.874 42.6432 210.749 42.6432C209.854 42.6432 209.051 42.4424 208.339 42.0407C207.639 41.6391 207.088 41.0711 206.687 40.3366C206.285 39.5907 206.084 38.73 206.084 37.7546C206.084 36.7792 206.279 35.9243 206.67 35.1898C207.06 34.4554 207.605 33.8931 208.305 33.5029C209.016 33.1013 209.831 32.9005 210.749 32.9005C211.644 32.9005 212.436 33.0956 213.124 33.4857C213.813 33.8759 214.341 34.4152 214.708 35.1038C215.087 35.7808 215.276 36.5497 215.276 37.4104ZM213.658 37.0833C213.658 36.4866 213.526 35.9759 213.262 35.5513C212.998 35.1153 212.637 34.7882 212.178 34.5702C211.73 34.3407 211.231 34.2259 210.68 34.2259C209.888 34.2259 209.211 34.4784 208.649 34.9833C208.098 35.4882 207.783 36.1882 207.702 37.0833H213.658ZM217.843 42.5916C217.545 42.5916 217.292 42.4883 217.086 42.2817C216.879 42.0752 216.776 41.8227 216.776 41.5243C216.776 41.226 216.879 40.9735 217.086 40.767C217.292 40.5604 217.545 40.4571 217.843 40.4571C218.13 40.4571 218.371 40.5604 218.566 40.767C218.772 40.9735 218.876 41.226 218.876 41.5243C218.876 41.8227 218.772 42.0752 218.566 42.2817C218.371 42.4883 218.13 42.5916 217.843 42.5916Z" fill="black"/>
</svg>
