<svg width="56" height="56" viewBox="0 0 56 56" fill="none" xmlns="http://www.w3.org/2000/svg">
<path fill-rule="evenodd" clip-rule="evenodd" d="M12.4383 19.0002H42.8294L39.935 37.0002H15.3327L12.4383 19.0002Z" stroke="black" stroke-width="2" stroke-linecap="round" stroke-linejoin="round"/>
<path fill-rule="evenodd" clip-rule="evenodd" d="M19 47C20.1046 47 21 46.1046 21 45C21 43.8954 20.1046 43 19 43C17.8954 43 17 43.8954 17 45C17 46.1046 17.8954 47 19 47Z" stroke="black" stroke-width="2"/>
<path fill-rule="evenodd" clip-rule="evenodd" d="M36 47C37.1046 47 38 46.1046 38 45C38 43.8954 37.1046 43 36 43C34.8954 43 34 43.8954 34 45C34 46.1046 34.8954 47 36 47Z" stroke="black" stroke-width="2"/>
<path d="M15 19H7" stroke="black" stroke-width="2" stroke-linecap="round"/>
</svg>
