<svg width="126" height="22" viewBox="0 0 126 22" fill="none" xmlns="http://www.w3.org/2000/svg">
<path d="M11 0L13.3574 7.60081H20.9861L14.8143 12.2984L17.1717 19.8992L11 15.2016L4.82825 19.8992L7.18565 12.2984L1.01391 7.60081H8.6426L11 0Z" fill="#170B03" fill-opacity="0.66"/>
<path d="M37 0L39.3574 7.60081H46.9861L40.8143 12.2984L43.1717 19.8992L37 15.2016L30.8283 19.8992L33.1857 12.2984L27.0139 7.60081H34.6426L37 0Z" fill="#170B03" fill-opacity="0.66"/>
<path d="M63 0L65.3574 7.60081H72.9861L66.8143 12.2984L69.1717 19.8992L63 15.2016L56.8283 19.8992L59.1857 12.2984L53.0139 7.60081H60.6426L63 0Z" fill="#170B03" fill-opacity="0.66"/>
<path d="M89 0L91.3574 7.60081H98.9861L92.8143 12.2984L95.1717 19.8992L89 15.2016L82.8283 19.8992L85.1857 12.2984L79.0139 7.60081H86.6426L89 0Z" fill="#D8D8D8"/>
<path d="M115 0L117.357 7.60081H124.986L118.814 12.2984L121.172 19.8992L115 15.2016L108.828 19.8992L111.186 12.2984L105.014 7.60081H112.643L115 0Z" fill="#D8D8D8"/>
</svg>
