<svg width="33" height="33" viewBox="0 0 33 33" fill="none" xmlns="http://www.w3.org/2000/svg">
<g clip-path="url(#clip0_1055_768)">
<path d="M32.0856 16.0428C32.0856 7.18267 24.9029 0 16.0428 0C7.18267 0 0 7.18267 0 16.0428C0 23.5662 5.17989 29.8794 12.1675 31.6133V20.9455H8.85947V16.0428H12.1675V13.9303C12.1675 8.46995 14.6387 5.93904 19.9996 5.93904C21.016 5.93904 22.7698 6.13861 23.4873 6.33754V10.7814C23.1087 10.7416 22.4509 10.7217 21.634 10.7217C19.0036 10.7217 17.9872 11.7183 17.9872 14.3089V16.0428H23.2274L22.3271 20.9455H17.9872V31.9681C25.9309 31.0088 32.0862 24.2451 32.0862 16.0428H32.0856Z" fill="#0866FF"/>
<path d="M22.3265 20.9459L23.2268 16.0432H17.9866V14.3093C17.9866 11.7187 19.0031 10.7221 21.6334 10.7221C22.4503 10.7221 23.1081 10.742 23.4867 10.7818V6.33796C22.7693 6.13838 21.0155 5.93945 19.999 5.93945C14.6381 5.93945 12.1669 8.47036 12.1669 13.9307V16.0432H8.85889V20.9459H12.1669V31.6137C13.408 31.9217 14.7062 32.086 16.0422 32.086C16.7 32.086 17.3487 32.0455 17.9859 31.9685V20.9459H22.3258H22.3265Z" fill="white"/>
</g>
<defs>
<clipPath id="clip0_1055_768">
<rect width="32.0856" height="32.0856" fill="white"/>
</clipPath>
</defs>
</svg>
