<svg width="33" height="33" viewBox="0 0 33 33" fill="none" xmlns="http://www.w3.org/2000/svg">
<g clip-path="url(#clip0_1055_771)">
<path d="M31.4465 8.37707C31.2651 7.69447 30.9076 7.07148 30.4098 6.57046C29.912 6.06944 29.2913 5.70795 28.6099 5.52218C26.1014 4.84766 16.0746 4.84766 16.0746 4.84766C16.0746 4.84766 6.0479 4.84766 3.5394 5.52218C2.85797 5.70795 2.23729 6.06944 1.73946 6.57046C1.24164 7.07148 0.884141 7.69447 0.70274 8.37707C0.0318604 10.8965 0.0318604 16.1505 0.0318604 16.1505C0.0318604 16.1505 0.0318604 21.4045 0.70274 23.924C0.884141 24.6066 1.24164 25.2296 1.73946 25.7306C2.23729 26.2316 2.85797 26.5931 3.5394 26.7789C6.0479 27.4534 16.0746 27.4534 16.0746 27.4534C16.0746 27.4534 26.1014 27.4534 28.6099 26.7789C29.2913 26.5931 29.912 26.2316 30.4098 25.7306C30.9076 25.2296 31.2651 24.6066 31.4465 23.924C32.1174 21.4045 32.1174 16.1505 32.1174 16.1505C32.1174 16.1505 32.1174 10.8965 31.4465 8.37707Z" fill="#FF0302"/>
<path d="M12.7931 20.9207V11.3789L21.1791 16.1498L12.7931 20.9207Z" fill="#FEFEFE"/>
</g>
<defs>
<clipPath id="clip0_1055_771">
<rect width="32.0856" height="32.0856" fill="white" transform="translate(0 0.107422)"/>
</clipPath>
</defs>
</svg>
