<svg width="33" height="33" viewBox="0 0 33 33" fill="none" xmlns="http://www.w3.org/2000/svg">
<g clip-path="url(#clip0_1055_774)">
<path d="M16.0428 3.1038C20.3292 3.1038 20.8368 3.1226 22.5226 3.1978C24.0892 3.26673 24.9352 3.52993 25.4993 3.74927C26.245 4.03754 26.7839 4.38847 27.3417 4.94621C27.9057 5.51021 28.2503 6.04289 28.5386 6.78862C28.7579 7.35263 29.0211 8.2049 29.0901 9.76531C29.1653 11.4573 29.1841 11.9649 29.1841 16.2451C29.1841 20.5315 29.1653 21.0391 29.0901 22.7249C29.0211 24.2916 28.7579 25.1376 28.5386 25.7016C28.2503 26.4473 27.8994 26.9862 27.3417 27.544C26.7777 28.108 26.245 28.4526 25.4993 28.7409C24.9352 28.9603 24.083 29.2235 22.5226 29.2924C20.8306 29.3676 20.3229 29.3864 16.0428 29.3864C11.7564 29.3864 11.2487 29.3676 9.563 29.2924C7.99632 29.2235 7.15032 28.9603 6.58631 28.7409C5.84058 28.4526 5.30164 28.1017 4.7439 27.544C4.1799 26.98 3.83523 26.4473 3.54696 25.7016C3.32762 25.1376 3.06442 24.2853 2.99549 22.7249C2.92029 21.0329 2.90149 20.5253 2.90149 16.2451C2.90149 11.9587 2.92029 11.4511 2.99549 9.76531C3.06442 8.19863 3.32762 7.35263 3.54696 6.78862C3.83523 6.04289 4.18616 5.50395 4.7439 4.94621C5.3079 4.38221 5.84058 4.03754 6.58631 3.74927C7.15032 3.52993 8.00259 3.26673 9.563 3.1978C11.2487 3.1226 11.7564 3.1038 16.0428 3.1038ZM16.0428 0.214844C11.6874 0.214844 11.1422 0.233644 9.4314 0.308844C7.72686 0.384045 6.55498 0.65978 5.53977 1.05458C4.4807 1.46819 3.58456 2.01339 2.69469 2.90953C1.79855 3.7994 1.25334 4.69554 0.839739 5.74835C0.444936 6.76982 0.169201 7.93543 0.0940007 9.63998C0.0188001 11.3571 0 11.9023 0 16.2576C0 20.613 0.0188001 21.1582 0.0940007 22.869C0.169201 24.5736 0.444936 25.7454 0.839739 26.7606C1.25334 27.8197 1.79855 28.7158 2.69469 29.6057C3.58456 30.4956 4.4807 31.0471 5.53351 31.4544C6.55498 31.8492 7.72059 32.1249 9.42513 32.2001C11.1359 32.2753 11.6812 32.2941 16.0365 32.2941C20.3919 32.2941 20.9371 32.2753 22.6479 32.2001C24.3524 32.1249 25.5243 31.8492 26.5395 31.4544C27.5923 31.0471 28.4885 30.4956 29.3783 29.6057C30.2682 28.7158 30.8197 27.8197 31.227 26.7669C31.6218 25.7454 31.8976 24.5798 31.9728 22.8753C32.048 21.1645 32.0668 20.6193 32.0668 16.2639C32.0668 11.9085 32.048 11.3633 31.9728 9.65251C31.8976 7.94797 31.6218 6.77609 31.227 5.76088C30.8322 4.69554 30.287 3.7994 29.3909 2.90953C28.501 2.01966 27.6049 1.46819 26.5521 1.06085C25.5306 0.666047 24.365 0.390312 22.6604 0.315111C20.9433 0.233644 20.3981 0.214844 16.0428 0.214844Z" fill="#734E3C"/>
<path d="M16.0427 8.01562C11.4931 8.01562 7.802 11.7067 7.802 16.2564C7.802 20.806 11.4931 24.4971 16.0427 24.4971C20.5924 24.4971 24.2835 20.806 24.2835 16.2564C24.2835 11.7067 20.5924 8.01562 16.0427 8.01562ZM16.0427 21.6019C13.0911 21.6019 10.6972 19.208 10.6972 16.2564C10.6972 13.3047 13.0911 10.9108 16.0427 10.9108C18.9943 10.9108 21.3882 13.3047 21.3882 16.2564C21.3882 19.208 18.9943 21.6019 16.0427 21.6019Z" fill="#734E3C"/>
<path d="M26.5333 7.68951C26.5333 8.75485 25.6685 9.61339 24.6094 9.61339C23.5441 9.61339 22.6855 8.74858 22.6855 7.68951C22.6855 6.62417 23.5504 5.76562 24.6094 5.76562C25.6685 5.76562 26.5333 6.63043 26.5333 7.68951Z" fill="#734E3C"/>
</g>
<defs>
<clipPath id="clip0_1055_774">
<rect width="32.0856" height="32.0856" fill="white" transform="translate(0 0.214844)"/>
</clipPath>
</defs>
</svg>
