<svg width="259" height="259" viewBox="0 0 259 259" fill="none" xmlns="http://www.w3.org/2000/svg">
<path fill-rule="evenodd" clip-rule="evenodd" d="M51.4321 25.3664C54.7241 22.8981 58.13 20.5879 61.6368 18.4433L18.4467 61.6368C20.5913 58.1299 22.898 54.7232 25.3639 51.4356L51.4321 25.3664ZM108.587 1.04197C109.866 0.832245 111.151 0.644021 112.435 0.474773L0.47909 112.432C0.6475 111.147 0.836561 109.865 1.04544 108.584L108.587 1.04197ZM142.46 0C143.445 0.0974876 144.43 0.205404 145.414 0.32628L0.330708 145.41C0.208771 144.426 0.100967 143.441 0 142.456L142.46 0ZM169.601 5.68238C170.424 5.94827 171.243 6.2246 172.063 6.50862L6.50862 172.059C6.22892 171.243 5.95175 170.42 5.68597 169.597L169.601 5.68238ZM192.5 15.6133C193.204 16.0018 193.903 16.3998 194.597 16.8004L16.8048 194.594C16.4032 193.899 16.0054 193.201 15.6177 192.496L192.5 15.6133ZM212.056 28.8845C212.656 29.3801 213.254 29.8756 213.843 30.3815L30.3849 213.843C29.879 213.249 29.3835 212.653 28.8879 212.053L212.056 28.8845ZM228.618 45.1523C229.121 45.7462 229.62 46.3428 230.112 46.9438L46.9471 230.112C46.3438 229.616 45.7462 229.12 45.1566 228.614L228.618 45.1523ZM242.199 64.402C242.6 65.097 242.995 65.798 243.382 66.4999L66.5033 243.382C65.7989 242.994 65.1004 242.599 64.4055 242.199L242.199 64.402ZM252.491 86.9368C252.774 87.7526 253.047 88.5719 253.314 89.3946L89.399 253.314C88.5763 253.047 87.7561 252.771 86.9402 252.488L252.491 86.9368ZM258.673 113.585C258.794 114.57 258.902 115.555 259 116.54L116.543 259C115.558 258.898 114.574 258.79 113.589 258.669L258.673 113.585ZM258.524 146.56C258.356 147.848 258.163 149.134 257.958 150.412L150.415 257.954C149.137 258.163 147.853 258.353 146.565 258.521L258.524 146.56ZM240.553 197.362C238.411 200.867 236.108 204.269 233.643 207.554L207.561 233.636C204.272 236.101 200.87 238.408 197.362 240.552L240.553 197.362Z" fill="white"/>
</svg>
