<svg width="231" height="231" viewBox="0 0 231 231" fill="none" xmlns="http://www.w3.org/2000/svg">
<path fill-rule="evenodd" clip-rule="evenodd" d="M45.8719 22.6241C48.808 20.4227 51.8457 18.3621 54.9733 16.4494L16.4524 54.9733C18.3652 51.8456 20.4226 48.8072 22.6219 45.875L45.8719 22.6241ZM96.8483 0.929321C97.9886 0.742272 99.1343 0.574397 100.28 0.423446L0.427296 100.277C0.5775 99.1313 0.746122 97.9879 0.932424 96.8452L96.8483 0.929321ZM127.059 0C127.937 0.0869484 128.816 0.183198 129.693 0.291006L0.294956 129.69C0.186201 128.812 0.0900515 127.934 0 127.055L127.059 0ZM151.266 5.06807C152 5.30522 152.73 5.55167 153.462 5.80498L5.80498 153.458C5.55553 152.73 5.30832 151.996 5.07127 151.263L151.266 5.06807ZM171.689 13.9254C172.317 14.2719 172.94 14.6268 173.56 14.9842L14.988 173.556C14.6299 172.937 14.2751 172.314 13.9293 171.685L171.689 13.9254ZM189.131 25.7618C189.666 26.2039 190.199 26.6458 190.725 27.097L27.1 190.725C26.6488 190.195 26.2069 189.663 25.7649 189.128L189.131 25.7618ZM203.902 40.2709C204.351 40.8007 204.796 41.3328 205.235 41.8687L41.8718 205.235C41.3336 204.792 40.8007 204.35 40.2748 203.899L203.902 40.2709ZM216.015 57.4396C216.373 58.0595 216.725 58.6847 217.071 59.3107L59.3138 217.071C58.6855 216.724 58.0625 216.372 57.4427 216.015L216.015 57.4396ZM225.195 77.5382C225.447 78.2658 225.691 78.9965 225.929 79.7303L79.7342 225.929C79.0005 225.691 78.2689 225.444 77.5412 225.192L225.195 77.5382ZM230.708 101.306C230.817 102.184 230.913 103.062 231 103.941L103.944 231C103.065 230.909 102.188 230.813 101.309 230.705L230.708 101.306ZM230.576 130.716C230.426 131.865 230.254 133.011 230.071 134.151L134.154 230.067C133.014 230.254 131.869 230.422 130.72 230.573L230.576 130.716ZM214.547 176.026C212.637 179.151 210.583 182.186 208.384 185.116L185.122 208.378C182.189 210.576 179.154 212.634 176.026 214.547L214.547 176.026Z" fill="white"/>
</svg>
